solid OpenSCAD_Model
  facet normal 0 0 -1
    outer loop
      vertex 36.5 -36.5 0
      vertex 35 -30 0
      vertex 36.5 36.5 0
    endloop
  endfacet
  facet normal 0 0 -1
    outer loop
      vertex 36.5 -36.5 0
      vertex 34.6194 -31.9134 0
      vertex 35 -30 0
    endloop
  endfacet
  facet normal 0 0 -1
    outer loop
      vertex 36.5 -36.5 0
      vertex 33.5355 -33.5355 0
      vertex 34.6194 -31.9134 0
    endloop
  endfacet
  facet normal 0 0 -1
    outer loop
      vertex 36.5 -36.5 0
      vertex 31.9134 -34.6194 0
      vertex 33.5355 -33.5355 0
    endloop
  endfacet
  facet normal 0 0 -1
    outer loop
      vertex 36.5 -36.5 0
      vertex 30 -35 0
      vertex 31.9134 -34.6194 0
    endloop
  endfacet
  facet normal 0 0 -1
    outer loop
      vertex 36.5 -36.5 0
      vertex -30 -35 0
      vertex 30 -35 0
    endloop
  endfacet
  facet normal -0 0 -1
    outer loop
      vertex -35 -30 0
      vertex -36.5 -36.5 0
      vertex -35 30 0
    endloop
  endfacet
  facet normal -0 0 -1
    outer loop
      vertex -34.6194 -31.9134 0
      vertex -36.5 -36.5 0
      vertex -35 -30 0
    endloop
  endfacet
  facet normal -0 0 -1
    outer loop
      vertex -33.5355 -33.5355 0
      vertex -36.5 -36.5 0
      vertex -34.6194 -31.9134 0
    endloop
  endfacet
  facet normal -0 0 -1
    outer loop
      vertex -31.9134 -34.6194 0
      vertex -36.5 -36.5 0
      vertex -33.5355 -33.5355 0
    endloop
  endfacet
  facet normal -0 0 -1
    outer loop
      vertex -30 -35 0
      vertex -36.5 -36.5 0
      vertex -31.9134 -34.6194 0
    endloop
  endfacet
  facet normal 0 0 -1
    outer loop
      vertex -36.5 -36.5 0
      vertex -30 -35 0
      vertex 36.5 -36.5 0
    endloop
  endfacet
  facet normal 0 0 -1
    outer loop
      vertex 35 30 0
      vertex 36.5 36.5 0
      vertex 35 -30 0
    endloop
  endfacet
  facet normal 0 0 -1
    outer loop
      vertex 34.6194 31.9134 0
      vertex 36.5 36.5 0
      vertex 35 30 0
    endloop
  endfacet
  facet normal 0 0 -1
    outer loop
      vertex 33.5355 33.5355 0
      vertex 36.5 36.5 0
      vertex 34.6194 31.9134 0
    endloop
  endfacet
  facet normal 0 0 -1
    outer loop
      vertex 31.9134 34.6194 0
      vertex 36.5 36.5 0
      vertex 33.5355 33.5355 0
    endloop
  endfacet
  facet normal 0 0 -1
    outer loop
      vertex 30 35 0
      vertex 36.5 36.5 0
      vertex 31.9134 34.6194 0
    endloop
  endfacet
  facet normal 0 0 -1
    outer loop
      vertex -30 35 0
      vertex 36.5 36.5 0
      vertex 30 35 0
    endloop
  endfacet
  facet normal 0 0 -1
    outer loop
      vertex -30 35 0
      vertex -36.5 36.5 0
      vertex 36.5 36.5 0
    endloop
  endfacet
  facet normal 0 0 -1
    outer loop
      vertex -31.9134 34.6194 0
      vertex -36.5 36.5 0
      vertex -30 35 0
    endloop
  endfacet
  facet normal 0 0 -1
    outer loop
      vertex -33.5355 33.5355 0
      vertex -36.5 36.5 0
      vertex -31.9134 34.6194 0
    endloop
  endfacet
  facet normal 0 0 -1
    outer loop
      vertex -34.6194 31.9134 0
      vertex -36.5 36.5 0
      vertex -33.5355 33.5355 0
    endloop
  endfacet
  facet normal 0 0 -1
    outer loop
      vertex -35 30 0
      vertex -36.5 36.5 0
      vertex -34.6194 31.9134 0
    endloop
  endfacet
  facet normal 0 0 -1
    outer loop
      vertex -36.5 36.5 0
      vertex -35 30 0
      vertex -36.5 -36.5 0
    endloop
  endfacet
  facet normal 1 -0 0
    outer loop
      vertex 36.5 -36.5 3
      vertex 36.5 36.5 0
      vertex 36.5 36.5 3
    endloop
  endfacet
  facet normal 1 0 0
    outer loop
      vertex 36.5 36.5 0
      vertex 36.5 -36.5 3
      vertex 36.5 -36.5 0
    endloop
  endfacet
  facet normal -1 0 0
    outer loop
      vertex -36.5 -36.5 0
      vertex -36.5 36.5 3
      vertex -36.5 36.5 0
    endloop
  endfacet
  facet normal -1 -0 0
    outer loop
      vertex -36.5 36.5 3
      vertex -36.5 -36.5 0
      vertex -36.5 -36.5 3
    endloop
  endfacet
  facet normal 0 -1 0
    outer loop
      vertex -36.5 -36.5 0
      vertex 36.5 -36.5 3
      vertex -36.5 -36.5 3
    endloop
  endfacet
  facet normal 0 -1 -0
    outer loop
      vertex 36.5 -36.5 3
      vertex -36.5 -36.5 0
      vertex 36.5 -36.5 0
    endloop
  endfacet
  facet normal 0 1 -0
    outer loop
      vertex 36.5 36.5 0
      vertex -36.5 36.5 3
      vertex 36.5 36.5 3
    endloop
  endfacet
  facet normal 0 1 0
    outer loop
      vertex -36.5 36.5 3
      vertex 36.5 36.5 0
      vertex -36.5 36.5 0
    endloop
  endfacet
  facet normal 0 0 1
    outer loop
      vertex 36.5 36.5 3
      vertex 35 30 3
      vertex 36.5 -36.5 3
    endloop
  endfacet
  facet normal 0 0 1
    outer loop
      vertex 36.5 36.5 3
      vertex 34.6194 31.9134 3
      vertex 35 30 3
    endloop
  endfacet
  facet normal 0 0 1
    outer loop
      vertex 36.5 36.5 3
      vertex 33.5355 33.5355 3
      vertex 34.6194 31.9134 3
    endloop
  endfacet
  facet normal 0 0 1
    outer loop
      vertex 36.5 36.5 3
      vertex 31.9134 34.6194 3
      vertex 33.5355 33.5355 3
    endloop
  endfacet
  facet normal 0 0 1
    outer loop
      vertex 36.5 36.5 3
      vertex 30 35 3
      vertex 31.9134 34.6194 3
    endloop
  endfacet
  facet normal 0 0 1
    outer loop
      vertex 36.5 36.5 3
      vertex -30 35 3
      vertex 30 35 3
    endloop
  endfacet
  facet normal 0 0 1
    outer loop
      vertex -35 30 3
      vertex -36.5 36.5 3
      vertex -35 -30 3
    endloop
  endfacet
  facet normal 0 0 1
    outer loop
      vertex -34.6194 31.9134 3
      vertex -36.5 36.5 3
      vertex -35 30 3
    endloop
  endfacet
  facet normal 0 0 1
    outer loop
      vertex -33.5355 33.5355 3
      vertex -36.5 36.5 3
      vertex -34.6194 31.9134 3
    endloop
  endfacet
  facet normal 0 0 1
    outer loop
      vertex -31.9134 34.6194 3
      vertex -36.5 36.5 3
      vertex -33.5355 33.5355 3
    endloop
  endfacet
  facet normal 0 0 1
    outer loop
      vertex -30 35 3
      vertex -36.5 36.5 3
      vertex -31.9134 34.6194 3
    endloop
  endfacet
  facet normal -0 0 1
    outer loop
      vertex -36.5 36.5 3
      vertex -30 35 3
      vertex 36.5 36.5 3
    endloop
  endfacet
  facet normal -0 0 1
    outer loop
      vertex 35 -30 3
      vertex 36.5 -36.5 3
      vertex 35 30 3
    endloop
  endfacet
  facet normal -0 0 1
    outer loop
      vertex 34.6194 -31.9134 3
      vertex 36.5 -36.5 3
      vertex 35 -30 3
    endloop
  endfacet
  facet normal -0 0 1
    outer loop
      vertex 33.5355 -33.5355 3
      vertex 36.5 -36.5 3
      vertex 34.6194 -31.9134 3
    endloop
  endfacet
  facet normal -0 0 1
    outer loop
      vertex 31.9134 -34.6194 3
      vertex 36.5 -36.5 3
      vertex 33.5355 -33.5355 3
    endloop
  endfacet
  facet normal -0 0 1
    outer loop
      vertex 30 -35 3
      vertex 36.5 -36.5 3
      vertex 31.9134 -34.6194 3
    endloop
  endfacet
  facet normal -0 0 1
    outer loop
      vertex -30 -35 3
      vertex 36.5 -36.5 3
      vertex 30 -35 3
    endloop
  endfacet
  facet normal 0 0 1
    outer loop
      vertex -30 -35 3
      vertex -36.5 -36.5 3
      vertex 36.5 -36.5 3
    endloop
  endfacet
  facet normal 0 0 1
    outer loop
      vertex -31.9134 -34.6194 3
      vertex -36.5 -36.5 3
      vertex -30 -35 3
    endloop
  endfacet
  facet normal 0 0 1
    outer loop
      vertex -33.5355 -33.5355 3
      vertex -36.5 -36.5 3
      vertex -31.9134 -34.6194 3
    endloop
  endfacet
  facet normal 0 0 1
    outer loop
      vertex -34.6194 -31.9134 3
      vertex -36.5 -36.5 3
      vertex -33.5355 -33.5355 3
    endloop
  endfacet
  facet normal 0 0 1
    outer loop
      vertex -35 -30 3
      vertex -36.5 -36.5 3
      vertex -34.6194 -31.9134 3
    endloop
  endfacet
  facet normal 0 0 1
    outer loop
      vertex -36.5 -36.5 3
      vertex -35 -30 3
      vertex -36.5 36.5 3
    endloop
  endfacet
  facet normal -0.831458 -0.555587 0
    outer loop
      vertex -33.5355 -33.5355 -3
      vertex -34.6194 -31.9134 0
      vertex -34.6194 -31.9134 -3
    endloop
  endfacet
  facet normal -0.831458 -0.555587 0
    outer loop
      vertex -34.6194 -31.9134 0
      vertex -33.5355 -33.5355 -3
      vertex -33.5355 -33.5355 0
    endloop
  endfacet
  facet normal -0.831458 -0.555587 0
    outer loop
      vertex -33.5355 -33.5355 3
      vertex -34.6194 -31.9134 3.01
      vertex -34.6194 -31.9134 3
    endloop
  endfacet
  facet normal -0.831458 -0.555587 0
    outer loop
      vertex -34.6194 -31.9134 3.01
      vertex -33.5355 -33.5355 3
      vertex -33.5355 -33.5355 3.01
    endloop
  endfacet
  facet normal -0.555587 -0.831458 0
    outer loop
      vertex -33.5355 -33.5355 -3
      vertex -31.9134 -34.6194 0
      vertex -33.5355 -33.5355 0
    endloop
  endfacet
  facet normal -0.555587 -0.831458 -0
    outer loop
      vertex -31.9134 -34.6194 0
      vertex -33.5355 -33.5355 -3
      vertex -31.9134 -34.6194 -3
    endloop
  endfacet
  facet normal -0.555587 -0.831458 0
    outer loop
      vertex -33.5355 -33.5355 3
      vertex -31.9134 -34.6194 3.01
      vertex -33.5355 -33.5355 3.01
    endloop
  endfacet
  facet normal -0.555587 -0.831458 -0
    outer loop
      vertex -31.9134 -34.6194 3.01
      vertex -33.5355 -33.5355 3
      vertex -31.9134 -34.6194 3
    endloop
  endfacet
  facet normal -0.980785 -0.195091 0
    outer loop
      vertex -34.6194 -31.9134 3
      vertex -35 -30 3.01
      vertex -35 -30 3
    endloop
  endfacet
  facet normal -0.980785 -0.195091 0
    outer loop
      vertex -35 -30 3.01
      vertex -34.6194 -31.9134 3
      vertex -34.6194 -31.9134 3.01
    endloop
  endfacet
  facet normal -0.980785 -0.195091 0
    outer loop
      vertex -34.6194 -31.9134 -3
      vertex -35 -30 0
      vertex -35 -30 -3
    endloop
  endfacet
  facet normal -0.980785 -0.195091 0
    outer loop
      vertex -35 -30 0
      vertex -34.6194 -31.9134 -3
      vertex -34.6194 -31.9134 0
    endloop
  endfacet
  facet normal -0.831458 0.555587 0
    outer loop
      vertex -34.6194 31.9134 3
      vertex -33.5355 33.5355 3.01
      vertex -33.5355 33.5355 3
    endloop
  endfacet
  facet normal -0.831458 0.555587 0
    outer loop
      vertex -33.5355 33.5355 3.01
      vertex -34.6194 31.9134 3
      vertex -34.6194 31.9134 3.01
    endloop
  endfacet
  facet normal -0.831458 0.555587 0
    outer loop
      vertex -34.6194 31.9134 -3
      vertex -33.5355 33.5355 0
      vertex -33.5355 33.5355 -3
    endloop
  endfacet
  facet normal -0.831458 0.555587 0
    outer loop
      vertex -33.5355 33.5355 0
      vertex -34.6194 31.9134 -3
      vertex -34.6194 31.9134 0
    endloop
  endfacet
  facet normal -0.555587 0.831458 0
    outer loop
      vertex -31.9134 34.6194 3
      vertex -33.5355 33.5355 3.01
      vertex -31.9134 34.6194 3.01
    endloop
  endfacet
  facet normal -0.555587 0.831458 0
    outer loop
      vertex -33.5355 33.5355 3.01
      vertex -31.9134 34.6194 3
      vertex -33.5355 33.5355 3
    endloop
  endfacet
  facet normal -0.555587 0.831458 0
    outer loop
      vertex -31.9134 34.6194 -3
      vertex -33.5355 33.5355 0
      vertex -31.9134 34.6194 0
    endloop
  endfacet
  facet normal -0.555587 0.831458 0
    outer loop
      vertex -33.5355 33.5355 0
      vertex -31.9134 34.6194 -3
      vertex -33.5355 33.5355 -3
    endloop
  endfacet
  facet normal 1 -0 0
    outer loop
      vertex 35 -30 3.01
      vertex 35 30 3
      vertex 35 30 3.01
    endloop
  endfacet
  facet normal 1 0 0
    outer loop
      vertex 35 30 3
      vertex 35 -30 3.01
      vertex 35 -30 3
    endloop
  endfacet
  facet normal 1 -0 0
    outer loop
      vertex 35 -30 0
      vertex 35 30 -3
      vertex 35 30 0
    endloop
  endfacet
  facet normal 1 0 0
    outer loop
      vertex 35 30 -3
      vertex 35 -30 0
      vertex 35 -30 -3
    endloop
  endfacet
  facet normal -1 0 0
    outer loop
      vertex -35 -30 -3
      vertex -35 30 0
      vertex -35 30 -3
    endloop
  endfacet
  facet normal -1 -0 0
    outer loop
      vertex -35 30 0
      vertex -35 -30 -3
      vertex -35 -30 0
    endloop
  endfacet
  facet normal -1 0 0
    outer loop
      vertex -35 -30 3
      vertex -35 30 3.01
      vertex -35 30 3
    endloop
  endfacet
  facet normal -1 -0 0
    outer loop
      vertex -35 30 3.01
      vertex -35 -30 3
      vertex -35 -30 3.01
    endloop
  endfacet
  facet normal 0 0 -1
    outer loop
      vertex 2.42705 21.57 -3
      vertex 35 30 -3
      vertex 2.42705 -21.57 -3
    endloop
  endfacet
  facet normal 0 0 -1
    outer loop
      vertex 35 30 -3
      vertex 2.42705 21.57 -3
      vertex 3 23.3333 -3
    endloop
  endfacet
  facet normal 0 0 -1
    outer loop
      vertex 0.927051 -20.4802 -3
      vertex 2.42705 21.57 -3
      vertex 2.42705 -21.57 -3
    endloop
  endfacet
  facet normal 0 0 -1
    outer loop
      vertex 0.927051 -20.4802 -3
      vertex 0.927051 20.4802 -3
      vertex 2.42705 21.57 -3
    endloop
  endfacet
  facet normal 0 0 -1
    outer loop
      vertex -0.927051 -20.4802 -3
      vertex 0.927051 20.4802 -3
      vertex 0.927051 -20.4802 -3
    endloop
  endfacet
  facet normal 0 0 -1
    outer loop
      vertex -0.927051 -20.4802 -3
      vertex -0.927051 20.4802 -3
      vertex 0.927051 20.4802 -3
    endloop
  endfacet
  facet normal 0 0 -1
    outer loop
      vertex -2.42705 -21.57 -3
      vertex -0.927051 20.4802 -3
      vertex -0.927051 -20.4802 -3
    endloop
  endfacet
  facet normal 0 0 -1
    outer loop
      vertex -2.42705 -21.57 -3
      vertex -2.42705 21.57 -3
      vertex -0.927051 20.4802 -3
    endloop
  endfacet
  facet normal 0 0 -1
    outer loop
      vertex -35 -30 -3
      vertex -2.42705 -21.57 -3
      vertex -3 -23.3333 -3
    endloop
  endfacet
  facet normal -0 0 -1
    outer loop
      vertex -2.42705 -21.57 -3
      vertex -35 -30 -3
      vertex -2.42705 21.57 -3
    endloop
  endfacet
  facet normal 0 0 -1
    outer loop
      vertex 30 -35 -3
      vertex 35 -30 -3
      vertex 34.6194 -31.9134 -3
    endloop
  endfacet
  facet normal 0 0 -1
    outer loop
      vertex 2.42705 -21.57 -3
      vertex 35 -30 -3
      vertex 3 -23.3333 -3
    endloop
  endfacet
  facet normal 0 0 -1
    outer loop
      vertex 30 -35 -3
      vertex 34.6194 -31.9134 -3
      vertex 33.5355 -33.5355 -3
    endloop
  endfacet
  facet normal 0 0 -1
    outer loop
      vertex 35 -30 -3
      vertex 2.42705 -21.57 -3
      vertex 35 30 -3
    endloop
  endfacet
  facet normal 0 0 -1
    outer loop
      vertex 30 -35 -3
      vertex 33.5355 -33.5355 -3
      vertex 31.9134 -34.6194 -3
    endloop
  endfacet
  facet normal 0 -0 -1
    outer loop
      vertex 30 35 -3
      vertex 35 30 -3
      vertex 3 23.3333 -3
    endloop
  endfacet
  facet normal -0 0 -1
    outer loop
      vertex 35 -30 -3
      vertex 30 -35 -3
      vertex 3 -23.3333 -3
    endloop
  endfacet
  facet normal 0 0 -1
    outer loop
      vertex 35 30 -3
      vertex 30 35 -3
      vertex 34.6194 31.9134 -3
    endloop
  endfacet
  facet normal 0 0 -1
    outer loop
      vertex 34.6194 31.9134 -3
      vertex 30 35 -3
      vertex 33.5355 33.5355 -3
    endloop
  endfacet
  facet normal 0 0 -1
    outer loop
      vertex 30 -35 -3
      vertex 2.42705 -25.0967 -3
      vertex 3 -23.3333 -3
    endloop
  endfacet
  facet normal 0 0 -1
    outer loop
      vertex 30 -35 -3
      vertex 0.927051 -26.1865 -3
      vertex 2.42705 -25.0967 -3
    endloop
  endfacet
  facet normal 0 0 -1
    outer loop
      vertex 30 -35 -3
      vertex -0.927051 -26.1865 -3
      vertex 0.927051 -26.1865 -3
    endloop
  endfacet
  facet normal 0 0 -1
    outer loop
      vertex -35 -30 -3
      vertex -3 -23.3333 -3
      vertex -30 -35 -3
    endloop
  endfacet
  facet normal -0 0 -1
    outer loop
      vertex -2.42705 -25.0967 -3
      vertex -30 -35 -3
      vertex -3 -23.3333 -3
    endloop
  endfacet
  facet normal -0 0 -1
    outer loop
      vertex -0.927051 -26.1865 -3
      vertex -30 -35 -3
      vertex -2.42705 -25.0967 -3
    endloop
  endfacet
  facet normal 0 0 -1
    outer loop
      vertex -30 -35 -3
      vertex -0.927051 -26.1865 -3
      vertex 30 -35 -3
    endloop
  endfacet
  facet normal 0 0 -1
    outer loop
      vertex 33.5355 33.5355 -3
      vertex 30 35 -3
      vertex 31.9134 34.6194 -3
    endloop
  endfacet
  facet normal 0 0 -1
    outer loop
      vertex 2.42705 25.0967 -3
      vertex 30 35 -3
      vertex 3 23.3333 -3
    endloop
  endfacet
  facet normal 0 0 -1
    outer loop
      vertex 0.927051 26.1865 -3
      vertex 30 35 -3
      vertex 2.42705 25.0967 -3
    endloop
  endfacet
  facet normal 0 0 -1
    outer loop
      vertex -0.927051 26.1865 -3
      vertex 30 35 -3
      vertex 0.927051 26.1865 -3
    endloop
  endfacet
  facet normal 0 0 -1
    outer loop
      vertex -35 30 -3
      vertex -2.42705 21.57 -3
      vertex -35 -30 -3
    endloop
  endfacet
  facet normal 0 0 -1
    outer loop
      vertex -0.927051 26.1865 -3
      vertex -30 35 -3
      vertex 30 35 -3
    endloop
  endfacet
  facet normal 0 0 -1
    outer loop
      vertex -2.42705 25.0967 -3
      vertex -30 35 -3
      vertex -0.927051 26.1865 -3
    endloop
  endfacet
  facet normal 0 0 -1
    outer loop
      vertex -2.42705 21.57 -3
      vertex -35 30 -3
      vertex -3 23.3333 -3
    endloop
  endfacet
  facet normal 0 0 -1
    outer loop
      vertex -35 -30 -3
      vertex -30 -35 -3
      vertex -31.9134 -34.6194 -3
    endloop
  endfacet
  facet normal 0 -0 -1
    outer loop
      vertex -30 35 -3
      vertex -3 23.3333 -3
      vertex -35 30 -3
    endloop
  endfacet
  facet normal 0 0 -1
    outer loop
      vertex -35 -30 -3
      vertex -31.9134 -34.6194 -3
      vertex -33.5355 -33.5355 -3
    endloop
  endfacet
  facet normal 0 0 -1
    outer loop
      vertex -3 23.3333 -3
      vertex -30 35 -3
      vertex -2.42705 25.0967 -3
    endloop
  endfacet
  facet normal 0 0 -1
    outer loop
      vertex -35 -30 -3
      vertex -33.5355 -33.5355 -3
      vertex -34.6194 -31.9134 -3
    endloop
  endfacet
  facet normal 0 0 -1
    outer loop
      vertex -30 35 -3
      vertex -35 30 -3
      vertex -31.9134 34.6194 -3
    endloop
  endfacet
  facet normal 0 0 -1
    outer loop
      vertex -31.9134 34.6194 -3
      vertex -35 30 -3
      vertex -33.5355 33.5355 -3
    endloop
  endfacet
  facet normal 0 0 -1
    outer loop
      vertex -33.5355 33.5355 -3
      vertex -35 30 -3
      vertex -34.6194 31.9134 -3
    endloop
  endfacet
  facet normal 0 0 1
    outer loop
      vertex 30 35 3.01
      vertex 35 30 3.01
      vertex 34.6194 31.9134 3.01
    endloop
  endfacet
  facet normal 0 0 1
    outer loop
      vertex 35 30 3.01
      vertex 30 35 3.01
      vertex 35 -30 3.01
    endloop
  endfacet
  facet normal 0 0 1
    outer loop
      vertex 30 35 3.01
      vertex 34.6194 31.9134 3.01
      vertex 33.5355 33.5355 3.01
    endloop
  endfacet
  facet normal 0 0 1
    outer loop
      vertex 30 -35 3.01
      vertex 35 -30 3.01
      vertex 30 35 3.01
    endloop
  endfacet
  facet normal 0 0 1
    outer loop
      vertex 30 35 3.01
      vertex 33.5355 33.5355 3.01
      vertex 31.9134 34.6194 3.01
    endloop
  endfacet
  facet normal 0 0 1
    outer loop
      vertex 35 -30 3.01
      vertex 30 -35 3.01
      vertex 34.6194 -31.9134 3.01
    endloop
  endfacet
  facet normal 0 0 1
    outer loop
      vertex 34.6194 -31.9134 3.01
      vertex 30 -35 3.01
      vertex 33.5355 -33.5355 3.01
    endloop
  endfacet
  facet normal 0 0 1
    outer loop
      vertex 33.5355 -33.5355 3.01
      vertex 30 -35 3.01
      vertex 31.9134 -34.6194 3.01
    endloop
  endfacet
  facet normal -0 0 1
    outer loop
      vertex -30 35 3.01
      vertex 30 -35 3.01
      vertex 30 35 3.01
    endloop
  endfacet
  facet normal 0 0 1
    outer loop
      vertex -30 35 3.01
      vertex -30 -35 3.01
      vertex 30 -35 3.01
    endloop
  endfacet
  facet normal 0 0 1
    outer loop
      vertex -35 30 3.01
      vertex -30 35 3.01
      vertex -31.9134 34.6194 3.01
    endloop
  endfacet
  facet normal 0 0 1
    outer loop
      vertex -30 35 3.01
      vertex -35 30 3.01
      vertex -30 -35 3.01
    endloop
  endfacet
  facet normal 0 0 1
    outer loop
      vertex -35 30 3.01
      vertex -31.9134 34.6194 3.01
      vertex -33.5355 33.5355 3.01
    endloop
  endfacet
  facet normal -0 0 1
    outer loop
      vertex -35 -30 3.01
      vertex -30 -35 3.01
      vertex -35 30 3.01
    endloop
  endfacet
  facet normal 0 0 1
    outer loop
      vertex -35 30 3.01
      vertex -33.5355 33.5355 3.01
      vertex -34.6194 31.9134 3.01
    endloop
  endfacet
  facet normal 0 0 1
    outer loop
      vertex -30 -35 3.01
      vertex -35 -30 3.01
      vertex -31.9134 -34.6194 3.01
    endloop
  endfacet
  facet normal 0 0 1
    outer loop
      vertex -31.9134 -34.6194 3.01
      vertex -35 -30 3.01
      vertex -33.5355 -33.5355 3.01
    endloop
  endfacet
  facet normal 0 0 1
    outer loop
      vertex -33.5355 -33.5355 3.01
      vertex -35 -30 3.01
      vertex -34.6194 -31.9134 3.01
    endloop
  endfacet
  facet normal -0.980785 0.195091 0
    outer loop
      vertex -35 30 -3
      vertex -34.6194 31.9134 0
      vertex -34.6194 31.9134 -3
    endloop
  endfacet
  facet normal -0.980785 0.195091 0
    outer loop
      vertex -34.6194 31.9134 0
      vertex -35 30 -3
      vertex -35 30 0
    endloop
  endfacet
  facet normal -0.980785 0.195091 0
    outer loop
      vertex -35 30 3
      vertex -34.6194 31.9134 3.01
      vertex -34.6194 31.9134 3
    endloop
  endfacet
  facet normal -0.980785 0.195091 0
    outer loop
      vertex -34.6194 31.9134 3.01
      vertex -35 30 3
      vertex -35 30 3.01
    endloop
  endfacet
  facet normal 0 1 -0
    outer loop
      vertex 30 35 -3
      vertex -30 35 0
      vertex 30 35 0
    endloop
  endfacet
  facet normal 0 1 0
    outer loop
      vertex -30 35 0
      vertex 30 35 -3
      vertex -30 35 -3
    endloop
  endfacet
  facet normal 0 1 -0
    outer loop
      vertex 30 35 3
      vertex -30 35 3.01
      vertex 30 35 3.01
    endloop
  endfacet
  facet normal 0 1 0
    outer loop
      vertex -30 35 3.01
      vertex 30 35 3
      vertex -30 35 3
    endloop
  endfacet
  facet normal -0.195091 0.980785 0
    outer loop
      vertex -30 35 -3
      vertex -31.9134 34.6194 0
      vertex -30 35 0
    endloop
  endfacet
  facet normal -0.195091 0.980785 0
    outer loop
      vertex -31.9134 34.6194 0
      vertex -30 35 -3
      vertex -31.9134 34.6194 -3
    endloop
  endfacet
  facet normal -0.195091 0.980785 0
    outer loop
      vertex -30 35 3
      vertex -31.9134 34.6194 3.01
      vertex -30 35 3.01
    endloop
  endfacet
  facet normal -0.195091 0.980785 0
    outer loop
      vertex -31.9134 34.6194 3.01
      vertex -30 35 3
      vertex -31.9134 34.6194 3
    endloop
  endfacet
  facet normal 0.831458 0.555587 0
    outer loop
      vertex 34.6194 31.9134 0
      vertex 33.5355 33.5355 -3
      vertex 33.5355 33.5355 0
    endloop
  endfacet
  facet normal 0.831458 0.555587 0
    outer loop
      vertex 33.5355 33.5355 -3
      vertex 34.6194 31.9134 0
      vertex 34.6194 31.9134 -3
    endloop
  endfacet
  facet normal 0.831458 0.555587 0
    outer loop
      vertex 34.6194 31.9134 3.01
      vertex 33.5355 33.5355 3
      vertex 33.5355 33.5355 3.01
    endloop
  endfacet
  facet normal 0.831458 0.555587 0
    outer loop
      vertex 33.5355 33.5355 3
      vertex 34.6194 31.9134 3.01
      vertex 34.6194 31.9134 3
    endloop
  endfacet
  facet normal 0.980785 0.195091 0
    outer loop
      vertex 35 30 0
      vertex 34.6194 31.9134 -3
      vertex 34.6194 31.9134 0
    endloop
  endfacet
  facet normal 0.980785 0.195091 0
    outer loop
      vertex 34.6194 31.9134 -3
      vertex 35 30 0
      vertex 35 30 -3
    endloop
  endfacet
  facet normal 0.980785 0.195091 0
    outer loop
      vertex 35 30 3.01
      vertex 34.6194 31.9134 3
      vertex 34.6194 31.9134 3.01
    endloop
  endfacet
  facet normal 0.980785 0.195091 0
    outer loop
      vertex 34.6194 31.9134 3
      vertex 35 30 3.01
      vertex 35 30 3
    endloop
  endfacet
  facet normal 0.980785 -0.195091 0
    outer loop
      vertex 34.6194 -31.9134 3.01
      vertex 35 -30 3
      vertex 35 -30 3.01
    endloop
  endfacet
  facet normal 0.980785 -0.195091 0
    outer loop
      vertex 35 -30 3
      vertex 34.6194 -31.9134 3.01
      vertex 34.6194 -31.9134 3
    endloop
  endfacet
  facet normal 0.980785 -0.195091 0
    outer loop
      vertex 34.6194 -31.9134 0
      vertex 35 -30 -3
      vertex 35 -30 0
    endloop
  endfacet
  facet normal 0.980785 -0.195091 0
    outer loop
      vertex 35 -30 -3
      vertex 34.6194 -31.9134 0
      vertex 34.6194 -31.9134 -3
    endloop
  endfacet
  facet normal 0.831458 -0.555587 0
    outer loop
      vertex 33.5355 -33.5355 3.01
      vertex 34.6194 -31.9134 3
      vertex 34.6194 -31.9134 3.01
    endloop
  endfacet
  facet normal 0.831458 -0.555587 0
    outer loop
      vertex 34.6194 -31.9134 3
      vertex 33.5355 -33.5355 3.01
      vertex 33.5355 -33.5355 3
    endloop
  endfacet
  facet normal 0.831458 -0.555587 0
    outer loop
      vertex 33.5355 -33.5355 0
      vertex 34.6194 -31.9134 -3
      vertex 34.6194 -31.9134 0
    endloop
  endfacet
  facet normal 0.831458 -0.555587 0
    outer loop
      vertex 34.6194 -31.9134 -3
      vertex 33.5355 -33.5355 0
      vertex 33.5355 -33.5355 -3
    endloop
  endfacet
  facet normal 0 -1 0
    outer loop
      vertex -30 -35 -3
      vertex 30 -35 0
      vertex -30 -35 0
    endloop
  endfacet
  facet normal 0 -1 -0
    outer loop
      vertex 30 -35 0
      vertex -30 -35 -3
      vertex 30 -35 -3
    endloop
  endfacet
  facet normal 0 -1 0
    outer loop
      vertex -30 -35 3
      vertex 30 -35 3.01
      vertex -30 -35 3.01
    endloop
  endfacet
  facet normal 0 -1 -0
    outer loop
      vertex 30 -35 3.01
      vertex -30 -35 3
      vertex 30 -35 3
    endloop
  endfacet
  facet normal -0.195091 -0.980785 0
    outer loop
      vertex -31.9134 -34.6194 -3
      vertex -30 -35 0
      vertex -31.9134 -34.6194 0
    endloop
  endfacet
  facet normal -0.195091 -0.980785 -0
    outer loop
      vertex -30 -35 0
      vertex -31.9134 -34.6194 -3
      vertex -30 -35 -3
    endloop
  endfacet
  facet normal -0.195091 -0.980785 0
    outer loop
      vertex -31.9134 -34.6194 3
      vertex -30 -35 3.01
      vertex -31.9134 -34.6194 3.01
    endloop
  endfacet
  facet normal -0.195091 -0.980785 -0
    outer loop
      vertex -30 -35 3.01
      vertex -31.9134 -34.6194 3
      vertex -30 -35 3
    endloop
  endfacet
  facet normal 0.195091 0.980785 -0
    outer loop
      vertex 31.9134 34.6194 3
      vertex 30 35 3.01
      vertex 31.9134 34.6194 3.01
    endloop
  endfacet
  facet normal 0.195091 0.980785 0
    outer loop
      vertex 30 35 3.01
      vertex 31.9134 34.6194 3
      vertex 30 35 3
    endloop
  endfacet
  facet normal 0.195091 0.980785 -0
    outer loop
      vertex 31.9134 34.6194 -3
      vertex 30 35 0
      vertex 31.9134 34.6194 0
    endloop
  endfacet
  facet normal 0.195091 0.980785 0
    outer loop
      vertex 30 35 0
      vertex 31.9134 34.6194 -3
      vertex 30 35 -3
    endloop
  endfacet
  facet normal 0.555587 0.831458 -0
    outer loop
      vertex 33.5355 33.5355 3
      vertex 31.9134 34.6194 3.01
      vertex 33.5355 33.5355 3.01
    endloop
  endfacet
  facet normal 0.555587 0.831458 0
    outer loop
      vertex 31.9134 34.6194 3.01
      vertex 33.5355 33.5355 3
      vertex 31.9134 34.6194 3
    endloop
  endfacet
  facet normal 0.555587 0.831458 -0
    outer loop
      vertex 33.5355 33.5355 -3
      vertex 31.9134 34.6194 0
      vertex 33.5355 33.5355 0
    endloop
  endfacet
  facet normal 0.555587 0.831458 0
    outer loop
      vertex 31.9134 34.6194 0
      vertex 33.5355 33.5355 -3
      vertex 31.9134 34.6194 -3
    endloop
  endfacet
  facet normal 0.555587 -0.831458 0
    outer loop
      vertex 31.9134 -34.6194 3
      vertex 33.5355 -33.5355 3.01
      vertex 31.9134 -34.6194 3.01
    endloop
  endfacet
  facet normal 0.555587 -0.831458 0
    outer loop
      vertex 33.5355 -33.5355 3.01
      vertex 31.9134 -34.6194 3
      vertex 33.5355 -33.5355 3
    endloop
  endfacet
  facet normal 0.555587 -0.831458 0
    outer loop
      vertex 31.9134 -34.6194 -3
      vertex 33.5355 -33.5355 0
      vertex 31.9134 -34.6194 0
    endloop
  endfacet
  facet normal 0.555587 -0.831458 0
    outer loop
      vertex 33.5355 -33.5355 0
      vertex 31.9134 -34.6194 -3
      vertex 33.5355 -33.5355 -3
    endloop
  endfacet
  facet normal 0.195091 -0.980785 0
    outer loop
      vertex 30 -35 -3
      vertex 31.9134 -34.6194 0
      vertex 30 -35 0
    endloop
  endfacet
  facet normal 0.195091 -0.980785 0
    outer loop
      vertex 31.9134 -34.6194 0
      vertex 30 -35 -3
      vertex 31.9134 -34.6194 -3
    endloop
  endfacet
  facet normal 0.195091 -0.980785 0
    outer loop
      vertex 30 -35 3
      vertex 31.9134 -34.6194 3.01
      vertex 30 -35 3.01
    endloop
  endfacet
  facet normal 0.195091 -0.980785 0
    outer loop
      vertex 31.9134 -34.6194 3.01
      vertex 30 -35 3
      vertex 31.9134 -34.6194 3
    endloop
  endfacet
  facet normal -0.951059 -0.30901 0
    outer loop
      vertex 3 23.3333 -3
      vertex 2.42705 25.0967 -0.855
      vertex 2.42705 25.0967 -3
    endloop
  endfacet
  facet normal -0.951059 -0.30901 0
    outer loop
      vertex 2.42705 25.0967 -0.855
      vertex 3 23.3333 -3
      vertex 3 23.3333 -0.855
    endloop
  endfacet
  facet normal -0.587781 0.80902 0
    outer loop
      vertex 2.42705 21.57 -3
      vertex 0.927051 20.4802 -0.855
      vertex 2.42705 21.57 -0.855
    endloop
  endfacet
  facet normal -0.587781 0.80902 0
    outer loop
      vertex 0.927051 20.4802 -0.855
      vertex 2.42705 21.57 -3
      vertex 0.927051 20.4802 -3
    endloop
  endfacet
  facet normal 0 -1 0
    outer loop
      vertex -0.927051 26.1865 -3
      vertex 0.927051 26.1865 -0.855
      vertex -0.927051 26.1865 -0.855
    endloop
  endfacet
  facet normal 0 -1 -0
    outer loop
      vertex 0.927051 26.1865 -0.855
      vertex -0.927051 26.1865 -3
      vertex 0.927051 26.1865 -3
    endloop
  endfacet
  facet normal -0.587781 -0.80902 0
    outer loop
      vertex 0.927051 26.1865 -3
      vertex 2.42705 25.0967 -0.855
      vertex 0.927051 26.1865 -0.855
    endloop
  endfacet
  facet normal -0.587781 -0.80902 -0
    outer loop
      vertex 2.42705 25.0967 -0.855
      vertex 0.927051 26.1865 -3
      vertex 2.42705 25.0967 -3
    endloop
  endfacet
  facet normal 0.951059 -0.30901 0
    outer loop
      vertex -3 23.3333 -0.855
      vertex -2.42705 25.0967 -3
      vertex -2.42705 25.0967 -0.855
    endloop
  endfacet
  facet normal 0.951059 -0.30901 0
    outer loop
      vertex -2.42705 25.0967 -3
      vertex -3 23.3333 -0.855
      vertex -3 23.3333 -3
    endloop
  endfacet
  facet normal 0.951053 0.309026 0
    outer loop
      vertex -2.42705 21.57 -0.855
      vertex -3 23.3333 -3
      vertex -3 23.3333 -0.855
    endloop
  endfacet
  facet normal 0.951053 0.309026 0
    outer loop
      vertex -3 23.3333 -3
      vertex -2.42705 21.57 -0.855
      vertex -2.42705 21.57 -3
    endloop
  endfacet
  facet normal 0.587781 -0.80902 0
    outer loop
      vertex -2.42705 25.0967 -3
      vertex -0.927051 26.1865 -0.855
      vertex -2.42705 25.0967 -0.855
    endloop
  endfacet
  facet normal 0.587781 -0.80902 0
    outer loop
      vertex -0.927051 26.1865 -0.855
      vertex -2.42705 25.0967 -3
      vertex -0.927051 26.1865 -3
    endloop
  endfacet
  facet normal 0.587781 0.80902 -0
    outer loop
      vertex -0.927051 20.4802 -3
      vertex -2.42705 21.57 -0.855
      vertex -0.927051 20.4802 -0.855
    endloop
  endfacet
  facet normal 0.587781 0.80902 0
    outer loop
      vertex -2.42705 21.57 -0.855
      vertex -0.927051 20.4802 -3
      vertex -2.42705 21.57 -3
    endloop
  endfacet
  facet normal -0.951053 0.309026 0
    outer loop
      vertex 2.42705 21.57 -3
      vertex 3 23.3333 -0.855
      vertex 3 23.3333 -3
    endloop
  endfacet
  facet normal -0.951053 0.309026 0
    outer loop
      vertex 3 23.3333 -0.855
      vertex 2.42705 21.57 -3
      vertex 2.42705 21.57 -0.855
    endloop
  endfacet
  facet normal 0 0 -1
    outer loop
      vertex 2.42705 21.57 -0.855
      vertex 2.42705 25.0967 -0.855
      vertex 3 23.3333 -0.855
    endloop
  endfacet
  facet normal 0 0 -1
    outer loop
      vertex 0.927051 20.4802 -0.855
      vertex 2.42705 25.0967 -0.855
      vertex 2.42705 21.57 -0.855
    endloop
  endfacet
  facet normal 0 0 -1
    outer loop
      vertex 0.927051 20.4802 -0.855
      vertex 0.927051 26.1865 -0.855
      vertex 2.42705 25.0967 -0.855
    endloop
  endfacet
  facet normal 0 0 -1
    outer loop
      vertex -0.927051 20.4802 -0.855
      vertex 0.927051 26.1865 -0.855
      vertex 0.927051 20.4802 -0.855
    endloop
  endfacet
  facet normal 0 0 -1
    outer loop
      vertex -0.927051 20.4802 -0.855
      vertex -0.927051 26.1865 -0.855
      vertex 0.927051 26.1865 -0.855
    endloop
  endfacet
  facet normal 0 0 -1
    outer loop
      vertex -2.42705 21.57 -0.855
      vertex -0.927051 26.1865 -0.855
      vertex -0.927051 20.4802 -0.855
    endloop
  endfacet
  facet normal 0 0 -1
    outer loop
      vertex -2.42705 21.57 -0.855
      vertex -2.42705 25.0967 -0.855
      vertex -0.927051 26.1865 -0.855
    endloop
  endfacet
  facet normal 0 -0 -1
    outer loop
      vertex -2.42705 25.0967 -0.855
      vertex -2.42705 21.57 -0.855
      vertex -3 23.3333 -0.855
    endloop
  endfacet
  facet normal 0 1 -0
    outer loop
      vertex 0.927051 20.4802 -3
      vertex -0.927051 20.4802 -0.855
      vertex 0.927051 20.4802 -0.855
    endloop
  endfacet
  facet normal 0 1 0
    outer loop
      vertex -0.927051 20.4802 -0.855
      vertex 0.927051 20.4802 -3
      vertex -0.927051 20.4802 -3
    endloop
  endfacet
  facet normal -0.951053 -0.309026 0
    outer loop
      vertex 3 -23.3333 -3
      vertex 2.42705 -21.57 -0.855
      vertex 2.42705 -21.57 -3
    endloop
  endfacet
  facet normal -0.951053 -0.309026 0
    outer loop
      vertex 2.42705 -21.57 -0.855
      vertex 3 -23.3333 -3
      vertex 3 -23.3333 -0.855
    endloop
  endfacet
  facet normal 0.951053 -0.309026 0
    outer loop
      vertex -3 -23.3333 -0.855
      vertex -2.42705 -21.57 -3
      vertex -2.42705 -21.57 -0.855
    endloop
  endfacet
  facet normal 0.951053 -0.309026 0
    outer loop
      vertex -2.42705 -21.57 -3
      vertex -3 -23.3333 -0.855
      vertex -3 -23.3333 -3
    endloop
  endfacet
  facet normal 0 1 -0
    outer loop
      vertex 0.927051 -26.1865 -3
      vertex -0.927051 -26.1865 -0.855
      vertex 0.927051 -26.1865 -0.855
    endloop
  endfacet
  facet normal 0 1 0
    outer loop
      vertex -0.927051 -26.1865 -0.855
      vertex 0.927051 -26.1865 -3
      vertex -0.927051 -26.1865 -3
    endloop
  endfacet
  facet normal 0 -1 0
    outer loop
      vertex -0.927051 -20.4802 -3
      vertex 0.927051 -20.4802 -0.855
      vertex -0.927051 -20.4802 -0.855
    endloop
  endfacet
  facet normal 0 -1 -0
    outer loop
      vertex 0.927051 -20.4802 -0.855
      vertex -0.927051 -20.4802 -3
      vertex 0.927051 -20.4802 -3
    endloop
  endfacet
  facet normal -0.587781 -0.80902 0
    outer loop
      vertex 0.927051 -20.4802 -3
      vertex 2.42705 -21.57 -0.855
      vertex 0.927051 -20.4802 -0.855
    endloop
  endfacet
  facet normal -0.587781 -0.80902 -0
    outer loop
      vertex 2.42705 -21.57 -0.855
      vertex 0.927051 -20.4802 -3
      vertex 2.42705 -21.57 -3
    endloop
  endfacet
  facet normal 0 0 -1
    outer loop
      vertex 2.42705 -25.0967 -0.855
      vertex 2.42705 -21.57 -0.855
      vertex 3 -23.3333 -0.855
    endloop
  endfacet
  facet normal 0 0 -1
    outer loop
      vertex 0.927051 -26.1865 -0.855
      vertex 2.42705 -21.57 -0.855
      vertex 2.42705 -25.0967 -0.855
    endloop
  endfacet
  facet normal 0 0 -1
    outer loop
      vertex 0.927051 -26.1865 -0.855
      vertex 0.927051 -20.4802 -0.855
      vertex 2.42705 -21.57 -0.855
    endloop
  endfacet
  facet normal 0 0 -1
    outer loop
      vertex -0.927051 -26.1865 -0.855
      vertex 0.927051 -20.4802 -0.855
      vertex 0.927051 -26.1865 -0.855
    endloop
  endfacet
  facet normal 0 0 -1
    outer loop
      vertex -0.927051 -26.1865 -0.855
      vertex -0.927051 -20.4802 -0.855
      vertex 0.927051 -20.4802 -0.855
    endloop
  endfacet
  facet normal 0 0 -1
    outer loop
      vertex -2.42705 -25.0967 -0.855
      vertex -0.927051 -20.4802 -0.855
      vertex -0.927051 -26.1865 -0.855
    endloop
  endfacet
  facet normal 0 0 -1
    outer loop
      vertex -2.42705 -25.0967 -0.855
      vertex -2.42705 -21.57 -0.855
      vertex -0.927051 -20.4802 -0.855
    endloop
  endfacet
  facet normal 0 -0 -1
    outer loop
      vertex -2.42705 -21.57 -0.855
      vertex -2.42705 -25.0967 -0.855
      vertex -3 -23.3333 -0.855
    endloop
  endfacet
  facet normal 0.587781 -0.80902 0
    outer loop
      vertex -2.42705 -21.57 -3
      vertex -0.927051 -20.4802 -0.855
      vertex -2.42705 -21.57 -0.855
    endloop
  endfacet
  facet normal 0.587781 -0.80902 0
    outer loop
      vertex -0.927051 -20.4802 -0.855
      vertex -2.42705 -21.57 -3
      vertex -0.927051 -20.4802 -3
    endloop
  endfacet
  facet normal -0.951059 0.30901 0
    outer loop
      vertex 2.42705 -25.0967 -3
      vertex 3 -23.3333 -0.855
      vertex 3 -23.3333 -3
    endloop
  endfacet
  facet normal -0.951059 0.30901 0
    outer loop
      vertex 3 -23.3333 -0.855
      vertex 2.42705 -25.0967 -3
      vertex 2.42705 -25.0967 -0.855
    endloop
  endfacet
  facet normal 0.951059 0.30901 0
    outer loop
      vertex -2.42705 -25.0967 -0.855
      vertex -3 -23.3333 -3
      vertex -3 -23.3333 -0.855
    endloop
  endfacet
  facet normal 0.951059 0.30901 0
    outer loop
      vertex -3 -23.3333 -3
      vertex -2.42705 -25.0967 -0.855
      vertex -2.42705 -25.0967 -3
    endloop
  endfacet
  facet normal -0.587781 0.80902 0
    outer loop
      vertex 2.42705 -25.0967 -3
      vertex 0.927051 -26.1865 -0.855
      vertex 2.42705 -25.0967 -0.855
    endloop
  endfacet
  facet normal -0.587781 0.80902 0
    outer loop
      vertex 0.927051 -26.1865 -0.855
      vertex 2.42705 -25.0967 -3
      vertex 0.927051 -26.1865 -3
    endloop
  endfacet
  facet normal 0.587781 0.80902 -0
    outer loop
      vertex -0.927051 -26.1865 -3
      vertex -2.42705 -25.0967 -0.855
      vertex -0.927051 -26.1865 -0.855
    endloop
  endfacet
  facet normal 0.587781 0.80902 0
    outer loop
      vertex -2.42705 -25.0967 -0.855
      vertex -0.927051 -26.1865 -3
      vertex -2.42705 -25.0967 -3
    endloop
  endfacet
endsolid OpenSCAD_Model
